<mxfile host="Electron" modified="2023-09-16T04:47:52.876Z" agent="Mozilla/5.0 (Windows NT 10.0; Win64; x64) AppleWebKit/537.36 (KHTML, like Gecko) draw.io/21.6.8 Chrome/114.0.5735.289 Electron/25.5.0 Safari/537.36" etag="J0QcWHQuGqD8KKRpZhNc" version="21.6.8" type="device">
  <diagram name="페이지-1" id="WTk4gBWwVpEZrcRoPYnq">
    <mxGraphModel dx="945" dy="547" grid="0" gridSize="10" guides="1" tooltips="1" connect="1" arrows="0" fold="1" page="1" pageScale="1" pageWidth="3300" pageHeight="4681" background="#252525" math="0" shadow="0">
      <root>
        <mxCell id="0" />
        <mxCell id="1" parent="0" />
        <mxCell id="IMI8m6R-7GCEDfvAlbne-156" value="" style="shape=delay;whiteSpace=wrap;html=1;strokeColor=#F5AB50;fontColor=#1A1A1A;fillColor=none;strokeWidth=4;rotation=90;" parent="1" vertex="1">
          <mxGeometry x="1100.5" y="1009.25" width="291" height="175.75" as="geometry" />
        </mxCell>
        <mxCell id="IMI8m6R-7GCEDfvAlbne-155" value="" style="shape=delay;whiteSpace=wrap;html=1;strokeColor=#F5AB50;fontColor=#1A1A1A;fillColor=none;strokeWidth=4;rotation=90;" parent="1" vertex="1">
          <mxGeometry x="669.47" y="1118.37" width="508.35" height="176.63" as="geometry" />
        </mxCell>
        <mxCell id="IMI8m6R-7GCEDfvAlbne-152" value="" style="shape=delay;whiteSpace=wrap;html=1;strokeColor=#F5AB50;fontColor=#1A1A1A;fillColor=none;strokeWidth=3;rotation=90;" parent="1" vertex="1">
          <mxGeometry x="182.59" y="1057.53" width="682.22" height="369.35" as="geometry" />
        </mxCell>
        <mxCell id="IMI8m6R-7GCEDfvAlbne-1" value="&lt;h1&gt;&lt;font style=&quot;font-size: 42px;&quot;&gt;JavaScript Object&lt;/font&gt;&lt;/h1&gt;" style="text;html=1;spacing=5;spacingTop=-20;whiteSpace=wrap;overflow=hidden;rounded=1;strokeWidth=2;fillColor=#F5AB50;strokeColor=none;fontFamily=메이플스토리 굵게;fontSource=url(&#39;https%3A%2F%2Fcdn.jsdelivr.net%2Fgh%2Fprojectnoonnu%2Fnoonfonts_20-04%402.1%2FMaplestoryOTFBold.woff&#39;)%20format(&#39;woff&#39;)%3B;align=center;labelBackgroundColor=none;fontColor=#1A1A1A;" parent="1" vertex="1">
          <mxGeometry x="815" y="680" width="219" height="112" as="geometry" />
        </mxCell>
        <mxCell id="IMI8m6R-7GCEDfvAlbne-17" value="&lt;h1 style=&quot;line-height: 98%;&quot;&gt;&lt;span style=&quot;background-color: initial;&quot;&gt;&lt;font style=&quot;font-size: 25px;&quot;&gt;Built-in Object&lt;/font&gt;&lt;/span&gt;&lt;br&gt;&lt;/h1&gt;" style="text;html=1;spacing=5;spacingTop=-20;whiteSpace=wrap;overflow=hidden;rounded=1;strokeWidth=2;fillColor=#F5AB50;strokeColor=none;fontFamily=메이플스토리 굵게;fontSource=url(&#39;https%3A%2F%2Fcdn.jsdelivr.net%2Fgh%2Fprojectnoonnu%2Fnoonfonts_20-04%402.1%2FMaplestoryOTFBold.woff&#39;)%20format(&#39;woff&#39;)%3B;align=center;fontColor=#1A1A1A;points=[[0,0,0,0,0],[0,0.25,0,0,0],[0,0.5,0,0,0],[0,0.75,0,0,0],[0,1,0,0,0],[0.13,1,0,0,0],[0.25,0,0,0,0],[0.5,0,0,0,0],[0.5,1,0,0,0],[0.75,0,0,0,0],[0.75,1,0,0,0],[1,0,0,0,0],[1,0.25,0,0,0],[1,0.5,0,0,0],[1,0.75,0,0,0],[1,1,0,0,0]];labelBackgroundColor=none;" parent="1" vertex="1">
          <mxGeometry x="338" y="893" width="372" height="64" as="geometry" />
        </mxCell>
        <mxCell id="IMI8m6R-7GCEDfvAlbne-20" value="&lt;h1 style=&quot;line-height: 200%;&quot;&gt;&lt;font&gt;BOM&lt;/font&gt;&lt;/h1&gt;" style="text;html=1;spacing=5;spacingTop=-20;whiteSpace=wrap;overflow=hidden;rounded=1;strokeWidth=2;fillColor=#F5AB50;strokeColor=none;fontFamily=메이플스토리 굵게;fontSource=url(&#39;https%3A%2F%2Fcdn.jsdelivr.net%2Fgh%2Fprojectnoonnu%2Fnoonfonts_20-04%402.1%2FMaplestoryOTFBold.woff&#39;)%20format(&#39;woff&#39;)%3B;align=center;fontColor=#1A1A1A;labelBackgroundColor=none;" parent="1" vertex="1">
          <mxGeometry x="834.0799999999999" y="893" width="180" height="64" as="geometry" />
        </mxCell>
        <mxCell id="IMI8m6R-7GCEDfvAlbne-26" value="&lt;h1 style=&quot;line-height: 200%;&quot;&gt;&lt;font&gt;DOM&lt;/font&gt;&lt;/h1&gt;" style="text;html=1;spacing=5;spacingTop=-20;whiteSpace=wrap;overflow=hidden;rounded=1;strokeWidth=2;fillColor=#F5AB50;strokeColor=none;fontFamily=메이플스토리 굵게;fontSource=url(&#39;https%3A%2F%2Fcdn.jsdelivr.net%2Fgh%2Fprojectnoonnu%2Fnoonfonts_20-04%402.1%2FMaplestoryOTFBold.woff&#39;)%20format(&#39;woff&#39;)%3B;align=center;fontColor=#1A1A1A;labelBackgroundColor=none;" parent="1" vertex="1">
          <mxGeometry x="1156.15" y="893" width="180" height="64" as="geometry" />
        </mxCell>
        <mxCell id="IMI8m6R-7GCEDfvAlbne-101" value="" style="group;strokeColor=none;container=0;movable=1;resizable=1;rotatable=1;deletable=1;editable=1;locked=0;connectable=1;strokeWidth=7;labelBackgroundColor=none;fontColor=#1A1A1A;rounded=1;" parent="1" vertex="1" connectable="0">
          <mxGeometry x="553" y="982" width="134" height="440" as="geometry" />
        </mxCell>
        <mxCell id="IMI8m6R-7GCEDfvAlbne-102" value="" style="group;strokeColor=none;movable=1;resizable=1;rotatable=1;deletable=1;editable=1;locked=0;connectable=1;container=0;strokeWidth=7;labelBackgroundColor=none;fontColor=#1A1A1A;rounded=1;" parent="1" vertex="1" connectable="0">
          <mxGeometry x="856.9999999999999" y="982" width="134" height="440" as="geometry" />
        </mxCell>
        <mxCell id="IMI8m6R-7GCEDfvAlbne-110" value="&lt;h1 style=&quot;line-height: 164%;&quot;&gt;&lt;font color=&quot;#252525&quot;&gt;&lt;span style=&quot;font-size: 25px;&quot;&gt;Element&lt;/span&gt;&lt;/font&gt;&lt;/h1&gt;" style="text;html=1;spacing=5;spacingTop=-20;whiteSpace=wrap;overflow=hidden;rounded=1;strokeWidth=7;fillColor=#F7E394;strokeColor=none;fontFamily=메이플스토리 굵게;fontSource=url(&#39;https%3A%2F%2Fcdn.jsdelivr.net%2Fgh%2Fprojectnoonnu%2Fnoonfonts_20-04%402.1%2FMaplestoryOTFBold.woff&#39;)%20format(&#39;woff&#39;)%3B;align=center;flipV=1;flipH=1;labelBackgroundColor=none;fontColor=#1A1A1A;" parent="1" vertex="1">
          <mxGeometry x="1182" y="981" width="134" height="53" as="geometry" />
        </mxCell>
        <mxCell id="IMI8m6R-7GCEDfvAlbne-111" value="&lt;h1 style=&quot;line-height: 164%;&quot;&gt;&lt;font color=&quot;#252525&quot;&gt;&lt;span style=&quot;font-size: 25px;&quot;&gt;text&lt;/span&gt;&lt;/font&gt;&lt;/h1&gt;" style="text;html=1;spacing=5;spacingTop=-20;whiteSpace=wrap;overflow=hidden;rounded=1;strokeWidth=7;fillColor=#F7E394;strokeColor=none;fontFamily=메이플스토리 굵게;fontSource=url(&#39;https%3A%2F%2Fcdn.jsdelivr.net%2Fgh%2Fprojectnoonnu%2Fnoonfonts_20-04%402.1%2FMaplestoryOTFBold.woff&#39;)%20format(&#39;woff&#39;)%3B;align=center;flipV=1;flipH=1;labelBackgroundColor=none;fontColor=#1A1A1A;" parent="1" vertex="1">
          <mxGeometry x="1182" y="1058" width="134" height="53" as="geometry" />
        </mxCell>
        <mxCell id="IMI8m6R-7GCEDfvAlbne-112" value="&lt;h1 style=&quot;line-height: 164%;&quot;&gt;&lt;span style=&quot;color: rgb(37, 37, 37); background-color: initial;&quot;&gt;&lt;font style=&quot;font-size: 25px;&quot;&gt;etc&lt;/font&gt;&lt;/span&gt;&lt;br&gt;&lt;/h1&gt;" style="text;html=1;spacing=5;spacingTop=-20;whiteSpace=wrap;overflow=hidden;rounded=1;strokeWidth=7;fillColor=#F7E394;strokeColor=none;fontFamily=메이플스토리 굵게;fontSource=url(&#39;https%3A%2F%2Fcdn.jsdelivr.net%2Fgh%2Fprojectnoonnu%2Fnoonfonts_20-04%402.1%2FMaplestoryOTFBold.woff&#39;)%20format(&#39;woff&#39;)%3B;align=center;flipV=1;flipH=1;labelBackgroundColor=none;fontColor=#1A1A1A;" parent="1" vertex="1">
          <mxGeometry x="1182" y="1136" width="134" height="53" as="geometry" />
        </mxCell>
        <mxCell id="IMI8m6R-7GCEDfvAlbne-103" value="&lt;h1 style=&quot;line-height: 164%;&quot;&gt;&lt;font color=&quot;#252525&quot;&gt;&lt;span style=&quot;font-size: 25px;&quot;&gt;window&lt;/span&gt;&lt;/font&gt;&lt;/h1&gt;" style="text;html=1;spacing=5;spacingTop=-20;whiteSpace=wrap;overflow=hidden;rounded=1;strokeWidth=7;fillColor=#F7E394;strokeColor=none;fontFamily=메이플스토리 굵게;fontSource=url(&#39;https%3A%2F%2Fcdn.jsdelivr.net%2Fgh%2Fprojectnoonnu%2Fnoonfonts_20-04%402.1%2FMaplestoryOTFBold.woff&#39;)%20format(&#39;woff&#39;)%3B;align=center;flipV=1;flipH=1;movable=1;resizable=1;rotatable=1;deletable=1;editable=1;locked=0;connectable=1;container=0;labelBackgroundColor=none;fontColor=#1A1A1A;" parent="1" vertex="1">
          <mxGeometry x="856.9999999999999" y="972" width="134" height="53" as="geometry" />
        </mxCell>
        <mxCell id="IMI8m6R-7GCEDfvAlbne-104" value="&lt;h1 style=&quot;line-height: 164%;&quot;&gt;&lt;font color=&quot;#252525&quot;&gt;&lt;span style=&quot;font-size: 25px;&quot;&gt;screen&lt;/span&gt;&lt;/font&gt;&lt;/h1&gt;" style="text;html=1;spacing=5;spacingTop=-20;whiteSpace=wrap;overflow=hidden;rounded=1;strokeWidth=7;fillColor=#F7E394;strokeColor=none;fontFamily=메이플스토리 굵게;fontSource=url(&#39;https%3A%2F%2Fcdn.jsdelivr.net%2Fgh%2Fprojectnoonnu%2Fnoonfonts_20-04%402.1%2FMaplestoryOTFBold.woff&#39;)%20format(&#39;woff&#39;)%3B;align=center;flipV=1;flipH=1;movable=1;resizable=1;rotatable=1;deletable=1;editable=1;locked=0;connectable=1;container=0;labelBackgroundColor=none;fontColor=#1A1A1A;" parent="1" vertex="1">
          <mxGeometry x="856.9999999999999" y="1049" width="134" height="53" as="geometry" />
        </mxCell>
        <mxCell id="IMI8m6R-7GCEDfvAlbne-105" value="&lt;h1 style=&quot;line-height: 164%;&quot;&gt;&lt;span style=&quot;color: rgb(37, 37, 37); background-color: initial;&quot;&gt;&lt;font style=&quot;font-size: 25px;&quot;&gt;location&lt;/font&gt;&lt;/span&gt;&lt;br&gt;&lt;/h1&gt;" style="text;html=1;spacing=5;spacingTop=-20;whiteSpace=wrap;overflow=hidden;rounded=1;strokeWidth=7;fillColor=#F7E394;strokeColor=none;fontFamily=메이플스토리 굵게;fontSource=url(&#39;https%3A%2F%2Fcdn.jsdelivr.net%2Fgh%2Fprojectnoonnu%2Fnoonfonts_20-04%402.1%2FMaplestoryOTFBold.woff&#39;)%20format(&#39;woff&#39;)%3B;align=center;flipV=1;flipH=1;movable=1;resizable=1;rotatable=1;deletable=1;editable=1;locked=0;connectable=1;container=0;labelBackgroundColor=none;fontColor=#1A1A1A;" parent="1" vertex="1">
          <mxGeometry x="856.9999999999999" y="1127" width="134" height="53" as="geometry" />
        </mxCell>
        <mxCell id="IMI8m6R-7GCEDfvAlbne-106" value="&lt;h1 style=&quot;line-height: 164%;&quot;&gt;&lt;span style=&quot;color: rgb(37, 37, 37); background-color: initial;&quot;&gt;&lt;font style=&quot;font-size: 25px;&quot;&gt;history&lt;/font&gt;&lt;/span&gt;&lt;br&gt;&lt;/h1&gt;" style="text;html=1;spacing=5;spacingTop=-20;whiteSpace=wrap;overflow=hidden;rounded=1;strokeWidth=7;fillColor=#F7E394;strokeColor=none;fontFamily=메이플스토리 굵게;fontSource=url(&#39;https%3A%2F%2Fcdn.jsdelivr.net%2Fgh%2Fprojectnoonnu%2Fnoonfonts_20-04%402.1%2FMaplestoryOTFBold.woff&#39;)%20format(&#39;woff&#39;)%3B;align=center;flipV=1;flipH=1;movable=1;resizable=1;rotatable=1;deletable=1;editable=1;locked=0;connectable=1;container=0;labelBackgroundColor=none;fontColor=#1A1A1A;" parent="1" vertex="1">
          <mxGeometry x="856.9999999999999" y="1204" width="134" height="53" as="geometry" />
        </mxCell>
        <mxCell id="IMI8m6R-7GCEDfvAlbne-107" value="&lt;h1 style=&quot;line-height: 164%;&quot;&gt;&lt;span style=&quot;color: rgb(37, 37, 37); background-color: initial;&quot;&gt;&lt;font style=&quot;font-size: 25px;&quot;&gt;navigate&lt;/font&gt;&lt;/span&gt;&lt;br&gt;&lt;/h1&gt;" style="text;html=1;spacing=5;spacingTop=-20;whiteSpace=wrap;overflow=hidden;rounded=1;strokeWidth=7;fillColor=#F7E394;strokeColor=none;fontFamily=메이플스토리 굵게;fontSource=url(&#39;https%3A%2F%2Fcdn.jsdelivr.net%2Fgh%2Fprojectnoonnu%2Fnoonfonts_20-04%402.1%2FMaplestoryOTFBold.woff&#39;)%20format(&#39;woff&#39;)%3B;align=center;flipV=1;flipH=1;movable=1;resizable=1;rotatable=1;deletable=1;editable=1;locked=0;connectable=1;container=0;labelBackgroundColor=none;fontColor=#1A1A1A;" parent="1" vertex="1">
          <mxGeometry x="856.9999999999999" y="1282" width="134" height="53" as="geometry" />
        </mxCell>
        <mxCell id="IMI8m6R-7GCEDfvAlbne-108" value="&lt;h1 style=&quot;line-height: 164%;&quot;&gt;&lt;span style=&quot;color: rgb(37, 37, 37); background-color: initial;&quot;&gt;&lt;font style=&quot;font-size: 25px;&quot;&gt;document&lt;/font&gt;&lt;/span&gt;&lt;br&gt;&lt;/h1&gt;" style="text;html=1;spacing=5;spacingTop=-20;whiteSpace=wrap;overflow=hidden;rounded=1;strokeWidth=7;fillColor=#F7E394;strokeColor=none;fontFamily=메이플스토리 굵게;fontSource=url(&#39;https%3A%2F%2Fcdn.jsdelivr.net%2Fgh%2Fprojectnoonnu%2Fnoonfonts_20-04%402.1%2FMaplestoryOTFBold.woff&#39;)%20format(&#39;woff&#39;)%3B;align=center;flipV=1;flipH=1;movable=1;resizable=1;rotatable=1;deletable=1;editable=1;locked=0;connectable=1;container=0;labelBackgroundColor=none;fontColor=#1A1A1A;" parent="1" vertex="1">
          <mxGeometry x="856.9999999999999" y="1359" width="134" height="53" as="geometry" />
        </mxCell>
        <mxCell id="IMI8m6R-7GCEDfvAlbne-32" value="&lt;h1 style=&quot;line-height: 164%;&quot;&gt;&lt;span style=&quot;color: rgb(37, 37, 37); background-color: initial;&quot;&gt;&lt;font style=&quot;font-size: 25px;&quot;&gt;String&lt;/font&gt;&lt;/span&gt;&lt;br&gt;&lt;/h1&gt;" style="text;html=1;spacing=5;spacingTop=-20;whiteSpace=wrap;overflow=hidden;rounded=1;strokeWidth=7;fillColor=#F7E394;strokeColor=none;fontFamily=메이플스토리 굵게;fontSource=url(&#39;https%3A%2F%2Fcdn.jsdelivr.net%2Fgh%2Fprojectnoonnu%2Fnoonfonts_20-04%402.1%2FMaplestoryOTFBold.woff&#39;)%20format(&#39;woff&#39;)%3B;align=center;flipV=1;flipH=1;container=0;movable=1;resizable=1;rotatable=1;deletable=1;editable=1;locked=0;connectable=1;labelBackgroundColor=none;fontColor=#1A1A1A;" parent="1" vertex="1">
          <mxGeometry x="553" y="972" width="134" height="53" as="geometry" />
        </mxCell>
        <mxCell id="IMI8m6R-7GCEDfvAlbne-78" value="&lt;h1 style=&quot;line-height: 164%;&quot;&gt;&lt;font color=&quot;#252525&quot;&gt;&lt;span style=&quot;font-size: 25px;&quot;&gt;Number&lt;/span&gt;&lt;/font&gt;&lt;/h1&gt;" style="text;html=1;spacing=5;spacingTop=-20;whiteSpace=wrap;overflow=hidden;rounded=1;strokeWidth=7;fillColor=#F7E394;strokeColor=none;fontFamily=메이플스토리 굵게;fontSource=url(&#39;https%3A%2F%2Fcdn.jsdelivr.net%2Fgh%2Fprojectnoonnu%2Fnoonfonts_20-04%402.1%2FMaplestoryOTFBold.woff&#39;)%20format(&#39;woff&#39;)%3B;align=center;flipV=1;flipH=1;movable=1;resizable=1;rotatable=1;deletable=1;editable=1;locked=0;connectable=1;labelBackgroundColor=none;fontColor=#1A1A1A;" parent="1" vertex="1">
          <mxGeometry x="553" y="1049" width="134" height="53" as="geometry" />
        </mxCell>
        <mxCell id="IMI8m6R-7GCEDfvAlbne-79" value="&lt;h1 style=&quot;line-height: 164%;&quot;&gt;&lt;span style=&quot;color: rgb(37, 37, 37); background-color: initial;&quot;&gt;&lt;font style=&quot;font-size: 25px;&quot;&gt;Math&lt;/font&gt;&lt;/span&gt;&lt;br&gt;&lt;/h1&gt;" style="text;html=1;spacing=5;spacingTop=-20;whiteSpace=wrap;overflow=hidden;rounded=1;strokeWidth=7;fillColor=#F7E394;strokeColor=none;fontFamily=메이플스토리 굵게;fontSource=url(&#39;https%3A%2F%2Fcdn.jsdelivr.net%2Fgh%2Fprojectnoonnu%2Fnoonfonts_20-04%402.1%2FMaplestoryOTFBold.woff&#39;)%20format(&#39;woff&#39;)%3B;align=center;flipV=1;flipH=1;movable=1;resizable=1;rotatable=1;deletable=1;editable=1;locked=0;connectable=1;labelBackgroundColor=none;fontColor=#1A1A1A;" parent="1" vertex="1">
          <mxGeometry x="553" y="1127" width="134" height="53" as="geometry" />
        </mxCell>
        <mxCell id="IMI8m6R-7GCEDfvAlbne-80" value="&lt;h1 style=&quot;line-height: 164%;&quot;&gt;&lt;span style=&quot;color: rgb(37, 37, 37); background-color: initial;&quot;&gt;&lt;font style=&quot;font-size: 25px;&quot;&gt;Array&lt;/font&gt;&lt;/span&gt;&lt;br&gt;&lt;/h1&gt;" style="text;html=1;spacing=5;spacingTop=-20;whiteSpace=wrap;overflow=hidden;rounded=1;strokeWidth=7;fillColor=#F7E394;strokeColor=none;fontFamily=메이플스토리 굵게;fontSource=url(&#39;https%3A%2F%2Fcdn.jsdelivr.net%2Fgh%2Fprojectnoonnu%2Fnoonfonts_20-04%402.1%2FMaplestoryOTFBold.woff&#39;)%20format(&#39;woff&#39;)%3B;align=center;flipV=1;flipH=1;movable=1;resizable=1;rotatable=1;deletable=1;editable=1;locked=0;connectable=1;labelBackgroundColor=none;fontColor=#1A1A1A;" parent="1" vertex="1">
          <mxGeometry x="553" y="1204" width="134" height="53" as="geometry" />
        </mxCell>
        <mxCell id="IMI8m6R-7GCEDfvAlbne-81" value="&lt;h1 style=&quot;line-height: 164%;&quot;&gt;&lt;span style=&quot;color: rgb(37, 37, 37); background-color: initial;&quot;&gt;&lt;font style=&quot;font-size: 25px;&quot;&gt;Date&lt;/font&gt;&lt;/span&gt;&lt;br&gt;&lt;/h1&gt;" style="text;html=1;spacing=5;spacingTop=-20;whiteSpace=wrap;overflow=hidden;rounded=1;strokeWidth=7;fillColor=#F7E394;strokeColor=none;fontFamily=메이플스토리 굵게;fontSource=url(&#39;https%3A%2F%2Fcdn.jsdelivr.net%2Fgh%2Fprojectnoonnu%2Fnoonfonts_20-04%402.1%2FMaplestoryOTFBold.woff&#39;)%20format(&#39;woff&#39;)%3B;align=center;flipV=1;flipH=1;movable=1;resizable=1;rotatable=1;deletable=1;editable=1;locked=0;connectable=1;labelBackgroundColor=none;fontColor=#1A1A1A;" parent="1" vertex="1">
          <mxGeometry x="553" y="1282" width="134" height="53" as="geometry" />
        </mxCell>
        <mxCell id="XikrrK4JkNqOyUv74VKJ-2" value="" style="edgeStyle=orthogonalEdgeStyle;rounded=0;orthogonalLoop=1;jettySize=auto;html=1;" edge="1" parent="1" source="IMI8m6R-7GCEDfvAlbne-82" target="XikrrK4JkNqOyUv74VKJ-1">
          <mxGeometry relative="1" as="geometry" />
        </mxCell>
        <mxCell id="IMI8m6R-7GCEDfvAlbne-82" value="&lt;h1 style=&quot;line-height: 164%;&quot;&gt;&lt;span style=&quot;color: rgb(37, 37, 37); background-color: initial;&quot;&gt;&lt;font style=&quot;font-size: 25px;&quot;&gt;Symbol&lt;/font&gt;&lt;/span&gt;&lt;br&gt;&lt;/h1&gt;" style="text;html=1;spacing=5;spacingTop=-20;whiteSpace=wrap;overflow=hidden;rounded=1;strokeWidth=7;fillColor=#F7E394;strokeColor=none;fontFamily=메이플스토리 굵게;fontSource=url(&#39;https%3A%2F%2Fcdn.jsdelivr.net%2Fgh%2Fprojectnoonnu%2Fnoonfonts_20-04%402.1%2FMaplestoryOTFBold.woff&#39;)%20format(&#39;woff&#39;)%3B;align=center;flipV=1;flipH=1;movable=1;resizable=1;rotatable=1;deletable=1;editable=1;locked=0;connectable=1;labelBackgroundColor=none;fontColor=#1A1A1A;" parent="1" vertex="1">
          <mxGeometry x="553" y="1359" width="134" height="53" as="geometry" />
        </mxCell>
        <mxCell id="IMI8m6R-7GCEDfvAlbne-157" value="" style="strokeWidth=12;html=1;shape=mxgraph.flowchart.annotation_2;align=left;labelPosition=right;pointerEvents=1;strokeColor=#F5AB50;fontColor=#1A1A1A;fillColor=#F5AB50;direction=south;gradientColor=none;" parent="1" vertex="1">
          <mxGeometry x="618" y="790" width="611.3" height="105" as="geometry" />
        </mxCell>
        <mxCell id="IMI8m6R-7GCEDfvAlbne-159" style="edgeStyle=none;rounded=0;orthogonalLoop=1;jettySize=auto;html=1;exitX=0;exitY=0.5;exitDx=0;exitDy=0;exitPerimeter=0;strokeColor=#F5AB50;fontColor=#1A1A1A;strokeWidth=12;" parent="1" source="IMI8m6R-7GCEDfvAlbne-157" target="IMI8m6R-7GCEDfvAlbne-157" edge="1">
          <mxGeometry relative="1" as="geometry" />
        </mxCell>
        <mxCell id="IMI8m6R-7GCEDfvAlbne-160" value="" style="orthogonalLoop=1;jettySize=auto;html=1;rounded=0;strokeColor=#182E3E;fontColor=#1A1A1A;strokeWidth=0;" parent="1" edge="1">
          <mxGeometry width="80" relative="1" as="geometry">
            <mxPoint x="1186" y="1149" as="sourcePoint" />
            <mxPoint x="1266" y="1149" as="targetPoint" />
          </mxGeometry>
        </mxCell>
        <mxCell id="IMI8m6R-7GCEDfvAlbne-163" value="" style="line;strokeWidth=12;direction=south;html=1;strokeColor=#F5AB50;fontColor=#1A1A1A;fillColor=#F5AB50;" parent="1" vertex="1">
          <mxGeometry x="907" y="790" width="32" height="114" as="geometry" />
        </mxCell>
        <mxCell id="XikrrK4JkNqOyUv74VKJ-1" value="&lt;h1 style=&quot;line-height: 164%;&quot;&gt;&lt;span style=&quot;color: rgb(37, 37, 37); background-color: initial;&quot;&gt;&lt;font style=&quot;font-size: 25px;&quot;&gt;Object&lt;/font&gt;&lt;/span&gt;&lt;br&gt;&lt;/h1&gt;" style="text;html=1;spacing=5;spacingTop=-20;whiteSpace=wrap;overflow=hidden;rounded=1;strokeWidth=7;fillColor=#F7E394;strokeColor=none;fontFamily=메이플스토리 굵게;fontSource=url(&#39;https%3A%2F%2Fcdn.jsdelivr.net%2Fgh%2Fprojectnoonnu%2Fnoonfonts_20-04%402.1%2FMaplestoryOTFBold.woff&#39;)%20format(&#39;woff&#39;)%3B;align=center;flipV=1;flipH=1;movable=1;resizable=1;rotatable=1;deletable=1;editable=1;locked=0;connectable=1;labelBackgroundColor=none;fontColor=#1A1A1A;" vertex="1" parent="1">
          <mxGeometry x="553" y="1492" width="134" height="53" as="geometry" />
        </mxCell>
      </root>
    </mxGraphModel>
  </diagram>
</mxfile>
